<?xml version="1.0" standalone="no"?>
<!DOCTYPE svg PUBLIC "-//W3C//DTD SVG 20010904//EN"
 "http://www.w3.org/TR/2001/REC-SVG-20010904/DTD/svg10.dtd">
<svg version="1.0" xmlns="http://www.w3.org/2000/svg"
 width="1320.000000pt" height="1320.000000pt" viewBox="0 0 1320.000000 1320.000000"
 preserveAspectRatio="xMidYMid meet">
<metadata>
Created by potrace 1.14, written by Peter Selinger 2001-2017
</metadata>
<g transform="translate(0.000000,1320.000000) scale(0.100000,-0.100000)"
fill="#000000" stroke="none">
<path d="M8424 10445 c-287 -50 -476 -183 -596 -420 -86 -169 -104 -281 -69
-429 33 -137 118 -337 234 -551 92 -170 105 -194 172 -310 98 -173 362 -612
580 -965 104 -168 217 -352 253 -410 35 -58 74 -121 87 -140 56 -87 225 -362
225 -366 0 -3 5 -10 10 -17 6 -7 167 -262 357 -567 190 -305 455 -730 589
-943 134 -214 244 -392 244 -397 0 -5 4 -10 8 -12 4 -1 37 -50 72 -108 35 -58
68 -106 72 -108 4 -2 8 -8 8 -13 0 -5 22 -42 48 -82 27 -40 51 -79 55 -87 4
-8 20 -34 35 -58 15 -23 88 -138 161 -255 74 -116 227 -356 339 -532 427 -668
454 -707 510 -748 141 -103 401 -187 557 -182 82 4 162 28 289 88 292 139 467
338 520 592 15 68 15 230 1 300 -15 78 -61 190 -115 284 -33 57 -60 105 -60
107 0 3 -361 602 -480 797 -47 76 -92 150 -101 165 -77 130 -1216 1963 -1403
2257 -28 45 -55 89 -61 98 -5 9 -66 105 -135 213 -69 109 -127 202 -129 208
-2 5 -8 15 -13 21 -5 5 -21 30 -37 55 -15 25 -49 77 -74 117 -26 40 -47 77
-47 82 0 5 -4 11 -8 13 -4 2 -32 41 -61 88 -29 47 -96 154 -149 237 -53 84
-135 212 -181 285 -76 120 -153 239 -217 338 -177 276 -346 538 -354 550 -6 8
-61 92 -122 185 -61 94 -115 172 -119 173 -5 2 -9 8 -9 14 0 8 -27 50 -72 113
-125 172 -250 255 -465 310 -81 20 -259 25 -349 10z"/>
<path d="M4530 10438 c-341 -34 -688 -227 -871 -483 -76 -106 -234 -345 -329
-500 -8 -13 -43 -68 -76 -122 -98 -156 -367 -593 -402 -653 -88 -148 -172
-286 -182 -297 -5 -7 -10 -15 -10 -18 0 -3 -16 -31 -35 -61 -19 -30 -35 -56
-35 -59 0 -2 -12 -23 -27 -47 -33 -51 -28 -43 -140 -231 -48 -82 -97 -163
-108 -181 -29 -49 -167 -282 -188 -319 -92 -158 -132 -226 -148 -249 -11 -15
-19 -29 -19 -32 0 -3 -26 -49 -58 -103 -93 -155 -177 -297 -182 -308 -3 -5
-18 -32 -34 -60 -59 -100 -329 -561 -346 -590 -45 -77 -112 -191 -120 -205
-14 -23 -89 -151 -175 -300 -43 -74 -98 -168 -122 -208 -23 -40 -43 -77 -43
-82 0 -6 -4 -10 -9 -10 -5 0 -11 -8 -14 -17 -6 -17 -42 -82 -74 -132 -8 -12
-29 -48 -45 -80 -17 -31 -37 -63 -44 -72 -8 -8 -14 -18 -14 -22 0 -6 -119
-216 -140 -247 -6 -8 -13 -22 -17 -30 -4 -8 -27 -49 -51 -90 -171 -290 -379
-686 -434 -825 -29 -74 -32 -90 -32 -200 -1 -138 5 -184 34 -279 77 -247 276
-435 530 -501 215 -56 466 -31 675 66 85 39 109 58 157 120 42 54 173 242 193
277 6 9 32 51 59 92 27 41 64 98 81 125 72 111 320 512 365 590 10 17 64 107
120 200 56 94 112 186 124 206 82 138 141 235 146 239 3 3 32 48 64 100 91
150 113 185 222 350 56 85 122 181 146 212 l45 58 20 -23 c34 -39 97 -129 195
-277 160 -244 193 -294 201 -310 4 -8 15 -27 25 -42 52 -82 293 -470 371 -600
9 -14 36 -59 60 -100 24 -40 59 -95 76 -123 18 -27 85 -133 150 -235 229 -359
470 -705 568 -816 82 -92 320 -156 552 -148 295 9 555 177 689 441 62 123 81
208 79 358 0 88 -6 148 -17 185 -9 30 -18 62 -20 71 -6 22 -77 168 -122 249
-102 186 -247 437 -412 720 -102 173 -190 324 -196 335 -6 11 -20 34 -32 50
-12 17 -23 35 -25 40 -2 6 -33 59 -69 118 -36 59 -70 115 -75 125 -6 9 -64
107 -130 217 -66 110 -125 209 -131 220 -5 11 -49 85 -96 165 -79 135 -180
310 -242 423 -14 26 -37 67 -51 92 -97 177 -195 367 -195 380 0 6 -5 16 -11
22 -32 32 -90 209 -83 250 31 168 446 956 623 1182 l18 24 72 -104 c65 -93
272 -409 311 -473 12 -21 256 -407 512 -811 32 -49 67 -106 78 -125 11 -19 28
-47 38 -62 9 -15 41 -67 71 -115 30 -48 80 -128 111 -178 107 -168 310 -496
310 -501 0 -3 5 -10 11 -17 9 -10 172 -273 296 -475 21 -34 59 -95 84 -135 25
-39 121 -193 212 -342 91 -148 170 -275 174 -281 4 -5 13 -19 19 -30 36 -64
310 -500 316 -502 5 -2 8 -7 8 -12 0 -35 710 -1091 843 -1255 86 -105 194
-181 307 -216 88 -27 130 -32 305 -33 300 -1 360 21 546 199 222 213 254 288
253 581 -1 122 -13 183 -55 291 -30 76 -98 218 -141 293 -4 8 -11 21 -15 29
-18 40 -254 446 -300 518 -18 29 -33 55 -33 58 0 4 -11 21 -25 39 -14 18 -25
36 -25 39 0 3 -95 160 -211 349 -117 189 -219 355 -228 370 -17 28 -132 215
-201 327 -22 34 -40 65 -40 67 0 3 -5 10 -10 17 -6 7 -96 149 -200 317 -104
168 -194 312 -199 320 -5 8 -49 78 -96 155 -48 77 -102 164 -121 192 -19 29
-34 57 -34 63 0 5 -3 10 -8 10 -4 0 -22 26 -40 58 -18 31 -51 84 -72 117 -22
33 -49 76 -60 95 -11 19 -40 67 -65 105 -25 39 -54 86 -65 105 -12 19 -34 55
-50 80 -16 25 -44 69 -62 99 -18 29 -41 65 -50 80 -10 14 -27 42 -38 61 -11
19 -58 95 -105 168 -47 73 -85 137 -85 142 0 5 -3 10 -7 12 -5 2 -69 100 -143
218 -184 295 -387 612 -400 627 -5 7 -10 14 -10 17 0 24 -585 884 -630 926 -3
3 -30 34 -60 70 -116 138 -205 208 -375 293 -244 122 -511 172 -775 145z"/>
</g>
</svg>
